# xmcd
#
# Track frame offsets: 
#        150
#        19961
#        33951
#        46794
#        64807
#        82581
#        104333
#        124012
#        144354
#        163324
#        182910
#        203653
#
# Disc length: 2933 seconds
#
# Revision: 0
# Processed by: cddbd v1.5.2PL0 Copyright (c) Steve Scherf et al.
# Submitted via: ExactAudioCopy v0.99pb5
#
DISCID=990b730c
DTITLE=Rick Strickland Band - Hangin Out
DYEAR=2012
DGENRE=Beach
TTITLE0=Every Now And Then
TTITLE1=Gonna Come A Day
TTITLE2=Hangin Out
TTITLE3=Pretending
TTITLE4=Watch Yourself
TTITLE5=Id Rather Be Your Friend
TTITLE6=Harbor Lights
TTITLE7=Think It Over
TTITLE8=Little Diva
TTITLE9=Alive Til 95
TTITLE10=Lets Take Our Time
TTITLE11=Hey What You Say
EXTD=
EXTT0=
EXTT1=
EXTT2=
EXTT3=
EXTT4=
EXTT5=
EXTT6=
EXTT7=
EXTT8=
EXTT9=
EXTT10=
EXTT11=
PLAYORDER=
